<?xml version="1.0" encoding="UTF-8" standalone="no"?>
<!DOCTYPE svg PUBLIC "-//W3C//DTD SVG 1.1//EN"
 "http://www.w3.org/Graphics/SVG/1.1/DTD/svg11.dtd">
<!-- Generated by graphviz version 2.36.0 (20140111.2315)
 -->
<!-- Title: %3 Pages: 1 -->
<svg width="569pt" height="774pt"
 viewBox="0.00 0.00 568.50 773.50" xmlns="http://www.w3.org/2000/svg" xmlns:xlink="http://www.w3.org/1999/xlink">
<g id="graph0" class="graph" transform="scale(1 1) rotate(0) translate(4 769.5)">
<title>%3</title>
<polygon fill="white" stroke="none" points="-4,4 -4,-769.5 564.5,-769.5 564.5,4 -4,4"/>
<!-- sco -->
<g id="node1" class="node"><title>sco</title>
<polygon fill="#332288" stroke="black" points="59,-624 0,-624 0,-588 59,-588 59,-624"/>
<text text-anchor="start" x="27" y="-609.8" font-family="Arial" font-size="9.00" fill="#ffffff">./</text>
<text text-anchor="start" x="8" y="-599.2" font-family="Arial" font-size="11.00" fill="#ffffff">score.py</text>
</g>
<!-- lst -->
<g id="node2" class="node"><title>lst</title>
<polygon fill="#88ccee" stroke="black" points="98,-540 17,-540 17,-504 98,-504 98,-540"/>
<text text-anchor="start" x="35" y="-525.8" font-family="Arial" font-size="9.00" fill="#000000">./subj/lists/</text>
<text text-anchor="start" x="25" y="-515.2" font-family="Arial" font-size="11.00" fill="#000000">ALL_*&#45;eve.lst</text>
</g>
<!-- sco&#45;&gt;lst -->
<g id="edge1" class="edge"><title>sco&#45;&gt;lst</title>
<path fill="none" stroke="black" d="M27.312,-587.57C26.805,-578.5 27.187,-567.39 30.5,-558 31.623,-554.82 33.158,-551.69 34.93,-548.7"/>
<polygon fill="black" stroke="black" points="37.9883,-550.43 40.781,-540.21 32.2245,-546.458 37.9883,-550.43"/>
<text text-anchor="start" x="30.5" y="-562.2" font-family="Arial" font-weight="bold" font-size="11.00">2. do_score</text>
</g>
<!-- evo -->
<g id="node3" class="node"><title>evo</title>
<polygon fill="#88ccee" stroke="black" points="158.5,-120 22.5,-120 22.5,-84 158.5,-84 158.5,-120"/>
<text text-anchor="start" x="30.5" y="-105.8" font-family="Arial" font-size="9.00" fill="#000000">./subj/inverse/, ./subj/epochs/</text>
<text text-anchor="start" x="50" y="-95.2" font-family="Arial" font-size="11.00" fill="#000000">*&#45;evo.fif, *&#45;epo.fif</text>
</g>
<!-- lst&#45;&gt;evo -->
<g id="edge2" class="edge"><title>lst&#45;&gt;evo</title>
<path fill="none" stroke="black" d="M57.5,-503.72C57.5,-487.13 57.5,-461.35 57.5,-439 57.5,-439 57.5,-439 57.5,-185 57.5,-165.3 65.796,-144.74 74.069,-129.14"/>
<polygon fill="black" stroke="black" points="77.2956,-130.543 79.143,-120.11 71.193,-127.113 77.2956,-130.543"/>
</g>
<!-- pbd -->
<g id="node4" class="node"><title>pbd</title>
<polygon fill="#332288" stroke="black" points="256,-624 181,-624 181,-588 256,-588 256,-624"/>
<text text-anchor="start" x="191" y="-609.8" font-family="Arial" font-size="9.00" fill="#ffffff">./subj/raw_fif/</text>
<text text-anchor="start" x="189" y="-599.2" font-family="Arial" font-size="11.00" fill="#ffffff">*_prebad.txt</text>
</g>
<!-- mfr -->
<g id="node5" class="node"><title>mfr</title>
<polygon fill="#999933" stroke="black" points="276.5,-540 130.5,-540 130.5,-504 276.5,-504 276.5,-540"/>
<text text-anchor="start" x="138.5" y="-525.8" font-family="Arial" font-size="9.00" fill="#000000">user@kasga:/data00/user/subj/</text>
<text text-anchor="start" x="151" y="-515.2" font-family="Arial" font-size="11.00" fill="#000000">*_raw.fif, *_prebad.txt</text>
</g>
<!-- pbd&#45;&gt;mfr -->
<g id="edge3" class="edge"><title>pbd&#45;&gt;mfr</title>
<path fill="none" stroke="black" d="M215.32,-587.61C213.34,-576.77 210.74,-562.6 208.49,-550.29"/>
<polygon fill="black" stroke="black" points="211.866,-549.291 206.63,-540.08 204.979,-550.545 211.866,-549.291"/>
</g>
<!-- mfs -->
<g id="node6" class="node"><title>mfs</title>
<polygon fill="#999933" stroke="black" points="276.5,-456 130.5,-456 130.5,-420 276.5,-420 276.5,-456"/>
<text text-anchor="start" x="138.5" y="-441.8" font-family="Arial" font-size="9.00" fill="#000000">user@kasga:/data00/user/subj/</text>
<text text-anchor="start" x="149" y="-431.2" font-family="Arial" font-size="11.00" fill="#000000">*_raw_sss.fif, *_log.txt</text>
</g>
<!-- mfr&#45;&gt;mfs -->
<g id="edge4" class="edge"><title>mfr&#45;&gt;mfs</title>
<path fill="none" stroke="black" d="M203.5,-503.61C203.5,-492.77 203.5,-478.6 203.5,-466.29"/>
<polygon fill="black" stroke="black" points="207,-466.08 203.5,-456.08 200,-466.08 207,-466.08"/>
<text text-anchor="start" x="203.5" y="-478.2" font-family="Arial" font-weight="bold" font-size="11.00">4. do_sss</text>
</g>
<!-- sss -->
<g id="node7" class="node"><title>sss</title>
<polygon fill="#88ccee" stroke="black" points="363.5,-372 283.5,-372 283.5,-336 363.5,-336 363.5,-372"/>
<text text-anchor="start" x="296" y="-357.8" font-family="Arial" font-size="9.00" fill="#000000">./subj/sss_fif/</text>
<text text-anchor="start" x="291.5" y="-347.2" font-family="Arial" font-size="11.00" fill="#000000">*_raw_sss.fif</text>
</g>
<!-- mfs&#45;&gt;sss -->
<g id="edge5" class="edge"><title>mfs&#45;&gt;sss</title>
<path fill="none" stroke="black" d="M228.66,-419.81C246.5,-407.62 270.63,-391.13 290.08,-377.84"/>
<polygon fill="black" stroke="black" points="292.097,-380.701 298.38,-372.17 288.148,-374.921 292.097,-380.701"/>
<text text-anchor="start" x="271.5" y="-394.2" font-family="Arial" font-weight="bold" font-size="11.00">5. fetch_sss</text>
</g>
<!-- ssl -->
<g id="node8" class="node"><title>ssl</title>
<polygon fill="#88ccee" stroke="black" points="163,-372 86,-372 86,-336 163,-336 163,-372"/>
<text text-anchor="start" x="94" y="-357.8" font-family="Arial" font-size="9.00" fill="#000000">./subj/sss_log/</text>
<text text-anchor="start" x="104.5" y="-347.2" font-family="Arial" font-size="11.00" fill="#000000">*_log.txt</text>
</g>
<!-- mfs&#45;&gt;ssl -->
<g id="edge6" class="edge"><title>mfs&#45;&gt;ssl</title>
<path fill="none" stroke="black" d="M186.75,-419.61C175.46,-407.9 160.42,-392.29 147.96,-379.35"/>
<polygon fill="black" stroke="black" points="150.417,-376.856 140.96,-372.08 145.375,-381.711 150.417,-376.856"/>
</g>
<!-- sss&#45;&gt;sss -->
<g id="edge7" class="edge"><title>sss&#45;&gt;sss</title>
<path fill="none" stroke="black" d="M363.62,-361.78C373.83,-361.27 381.5,-358.68 381.5,-354 381.5,-351.08 378.5,-348.97 373.76,-347.67"/>
<polygon fill="black" stroke="black" points="374.015,-344.171 363.62,-346.22 373.024,-351.1 374.015,-344.171"/>
<text text-anchor="start" x="381.5" y="-352.2" font-family="Arial" font-weight="bold" font-size="11.00">6. do_ch_fix</text>
</g>
<!-- pca -->
<g id="node10" class="node"><title>pca</title>
<polygon fill="#88ccee" stroke="black" points="264.5,-204 172.5,-204 172.5,-168 264.5,-168 264.5,-204"/>
<text text-anchor="start" x="180.5" y="-189.8" font-family="Arial" font-size="9.00" fill="#000000">./subj/sss_pca_fif/</text>
<text text-anchor="start" x="186.5" y="-179.2" font-family="Arial" font-size="11.00" fill="#000000">*_raw_sss.fif</text>
</g>
<!-- sss&#45;&gt;pca -->
<g id="edge8" class="edge"><title>sss&#45;&gt;pca</title>
<path fill="none" stroke="black" d="M326.71,-335.66C330.72,-308.44 334.22,-255.35 308.5,-222 305.89,-218.61 291.04,-212.36 274.14,-206.07"/>
<polygon fill="black" stroke="black" points="275.194,-202.729 264.6,-202.58 272.789,-209.303 275.194,-202.729"/>
</g>
<!-- pro -->
<g id="node11" class="node"><title>pro</title>
<polygon fill="#88ccee" stroke="black" points="301.5,-288 209.5,-288 209.5,-252 301.5,-252 301.5,-288"/>
<text text-anchor="start" x="217.5" y="-273.8" font-family="Arial" font-size="9.00" fill="#000000">./subj/sss_pca_fif/</text>
<text text-anchor="start" x="236.5" y="-263.2" font-family="Arial" font-size="11.00" fill="#000000">*&#45;proj.fif</text>
</g>
<!-- sss&#45;&gt;pro -->
<g id="edge9" class="edge"><title>sss&#45;&gt;pro</title>
<path fill="none" stroke="black" d="M283.4,-340.04C273.29,-334.8 263.59,-327.65 257.5,-318 253.9,-312.29 252.41,-305.36 252.05,-298.6"/>
<polygon fill="black" stroke="black" points="255.555,-298.396 252.28,-288.32 248.557,-298.239 255.555,-298.396"/>
<text text-anchor="start" x="257.5" y="-310.2" font-family="Arial" font-weight="bold" font-size="11.00">7. gen_ssp</text>
</g>
<!-- inv -->
<g id="node9" class="node"><title>inv</title>
<polygon fill="#88ccee" stroke="black" points="329.5,-36 255.5,-36 255.5,-0 329.5,-0 329.5,-36"/>
<text text-anchor="start" x="263.5" y="-21.8" font-family="Arial" font-size="9.00" fill="#000000">./subj/inverse/</text>
<text text-anchor="start" x="275.5" y="-11.2" font-family="Arial" font-size="11.00" fill="#000000">*&#45;inv.fif</text>
</g>
<!-- pca&#45;&gt;evo -->
<g id="edge10" class="edge"><title>pca&#45;&gt;evo</title>
<path fill="none" stroke="black" d="M172.47,-171.51C158.26,-166.12 143.06,-159.01 130.5,-150 122.19,-144.04 114.51,-135.99 108.15,-128.23"/>
<polygon fill="black" stroke="black" points="110.697,-125.803 101.8,-120.05 105.167,-130.095 110.697,-125.803"/>
<text text-anchor="start" x="130.5" y="-142.2" font-family="Arial" font-weight="bold" font-size="11.00">9. write_epochs</text>
</g>
<!-- fwd -->
<g id="node12" class="node"><title>fwd</title>
<polygon fill="#88ccee" stroke="black" points="365.5,-120 291.5,-120 291.5,-84 365.5,-84 365.5,-120"/>
<text text-anchor="start" x="299.5" y="-105.8" font-family="Arial" font-size="9.00" fill="#000000">./subj/forward/</text>
<text text-anchor="start" x="310" y="-95.2" font-family="Arial" font-size="11.00" fill="#000000">*&#45;fwd.fif</text>
</g>
<!-- pca&#45;&gt;fwd -->
<g id="edge11" class="edge"><title>pca&#45;&gt;fwd</title>
<path fill="none" stroke="black" d="M260.42,-167.96C270.44,-162.93 280.76,-156.9 289.5,-150 297.32,-143.83 304.66,-135.85 310.81,-128.23"/>
<polygon fill="black" stroke="black" points="313.671,-130.251 316.99,-120.19 308.121,-125.985 313.671,-130.251"/>
</g>
<!-- cov -->
<g id="node13" class="node"><title>cov</title>
<polygon fill="#88ccee" stroke="black" points="257,-120 200,-120 200,-84 257,-84 257,-120"/>
<text text-anchor="start" x="208" y="-105.8" font-family="Arial" font-size="9.00" fill="#000000">./subj/cov/</text>
<text text-anchor="start" x="210" y="-95.2" font-family="Arial" font-size="11.00" fill="#000000">*&#45;cov.fif</text>
</g>
<!-- pca&#45;&gt;cov -->
<g id="edge12" class="edge"><title>pca&#45;&gt;cov</title>
<path fill="none" stroke="black" d="M217.92,-167.96C217.85,-159 218.15,-147.86 219.5,-138 219.85,-135.44 220.32,-132.81 220.86,-130.18"/>
<polygon fill="black" stroke="black" points="224.303,-130.828 223.21,-120.29 217.493,-129.21 224.303,-130.828"/>
<text text-anchor="start" x="219.5" y="-142.2" font-family="Arial" font-weight="bold" font-size="11.00">10. gen_covs</text>
</g>
<!-- pro&#45;&gt;pca -->
<g id="edge13" class="edge"><title>pro&#45;&gt;pca</title>
<path fill="none" stroke="black" d="M247.65,-251.61C242.67,-240.56 236.11,-226.03 230.48,-213.55"/>
<polygon fill="black" stroke="black" points="233.511,-211.757 226.21,-204.08 227.13,-214.635 233.511,-211.757"/>
<text text-anchor="start" x="239.5" y="-226.2" font-family="Arial" font-weight="bold" font-size="11.00">8. apply_ssp</text>
</g>
<!-- fwd&#45;&gt;inv -->
<g id="edge14" class="edge"><title>fwd&#45;&gt;inv</title>
<path fill="none" stroke="black" d="M320.87,-83.61C316.01,-72.555 309.63,-58.027 304.16,-45.548"/>
<polygon fill="black" stroke="black" points="307.228,-43.8302 300,-36.084 300.82,-46.6471 307.228,-43.8302"/>
<text text-anchor="start" x="313.5" y="-58.2" font-family="Arial" font-weight="bold" font-size="11.00">12. gen_inv</text>
</g>
<!-- cov&#45;&gt;inv -->
<g id="edge15" class="edge"><title>cov&#45;&gt;inv</title>
<path fill="none" stroke="black" d="M242.07,-83.61C251.04,-72.118 262.94,-56.871 272.93,-44.075"/>
<polygon fill="black" stroke="black" points="275.774,-46.1198 279.17,-36.084 270.257,-41.8116 275.774,-46.1198"/>
</g>
<!-- raw -->
<g id="node14" class="node"><title>raw</title>
<polygon fill="#88ccee" stroke="black" points="155,-624 84,-624 84,-588 155,-588 155,-624"/>
<text text-anchor="start" x="92" y="-609.8" font-family="Arial" font-size="9.00" fill="#000000">./subj/raw_fif/</text>
<text text-anchor="start" x="99.5" y="-599.2" font-family="Arial" font-size="11.00" fill="#000000">*_raw.fif</text>
</g>
<!-- raw&#45;&gt;lst -->
<g id="edge16" class="edge"><title>raw&#45;&gt;lst</title>
<path fill="none" stroke="black" d="M111.03,-587.79C106.15,-578.58 99.593,-567.27 92.5,-558 89.855,-554.55 86.888,-551.09 83.829,-547.77"/>
<polygon fill="black" stroke="black" points="86.0978,-545.081 76.633,-540.32 81.063,-549.944 86.0978,-545.081"/>
</g>
<!-- raw&#45;&gt;mfr -->
<g id="edge17" class="edge"><title>raw&#45;&gt;mfr</title>
<path fill="none" stroke="black" d="M125.04,-587.87C128.8,-578.24 134.55,-566.49 142.5,-558 146.77,-553.44 151.77,-549.3 157.04,-545.6"/>
<polygon fill="black" stroke="black" points="158.978,-548.515 165.48,-540.15 155.181,-542.634 158.978,-548.515"/>
<text text-anchor="start" x="142.5" y="-562.2" font-family="Arial" font-weight="bold" font-size="11.00">3. push_raw</text>
</g>
<!-- acq -->
<g id="node15" class="node"><title>acq</title>
<polygon fill="#aa4499" stroke="black" points="155,-737 84,-737 84,-701 155,-701 155,-737"/>
<text text-anchor="start" x="92" y="-722.8" font-family="Arial" font-size="9.00" fill="#ffffff">user@minea</text>
<text text-anchor="start" x="99.5" y="-712.2" font-family="Arial" font-size="11.00" fill="#ffffff">*_raw.fif</text>
</g>
<!-- acq&#45;&gt;raw -->
<g id="edge18" class="edge"><title>acq&#45;&gt;raw</title>
<path fill="none" stroke="black" d="M119.5,-700.66C119.5,-682.9 119.5,-655.04 119.5,-634.32"/>
<polygon fill="black" stroke="black" points="123,-634.22 119.5,-624.22 116,-634.22 123,-634.22"/>
<text text-anchor="start" x="119.5" y="-646.2" font-family="Arial" font-weight="bold" font-size="11.00">1. fetch_raw</text>
</g>
<!-- legend -->
<g id="node16" class="node"><title>legend</title>
<polygon fill="#aa4499" stroke="none" points="177.5,-742 177.5,-761 196.5,-761 196.5,-742 177.5,-742"/>
<text text-anchor="start" x="182" y="-749.3" font-family="Arial" font-size="9.00"> &#160;&#160;&#160;</text>
<text text-anchor="start" x="207.5" y="-749.3" font-family="Arial" font-size="9.00">Acquisiton machine</text>
<polygon fill="#999933" stroke="none" points="177.5,-720 177.5,-738 196.5,-738 196.5,-720 177.5,-720"/>
<text text-anchor="start" x="182" y="-726.8" font-family="Arial" font-size="9.00"> &#160;&#160;&#160;</text>
<text text-anchor="start" x="220" y="-726.8" font-family="Arial" font-size="9.00">SSS machine</text>
<polygon fill="#332288" stroke="none" points="177.5,-698 177.5,-716 196.5,-716 196.5,-698 177.5,-698"/>
<text text-anchor="start" x="182" y="-704.8" font-family="Arial" font-size="9.00"> &#160;&#160;&#160;</text>
<text text-anchor="start" x="211.5" y="-704.8" font-family="Arial" font-size="9.00">User&#45;created files</text>
<polygon fill="#88ccee" stroke="none" points="177.5,-676 177.5,-694 196.5,-694 196.5,-676 177.5,-676"/>
<text text-anchor="start" x="182" y="-682.8" font-family="Arial" font-size="9.00"> &#160;&#160;&#160;</text>
<text text-anchor="start" x="204.5" y="-682.8" font-family="Arial" font-size="9.00">Pipeline&#45;created files</text>
</g>
<!-- src -->
<g id="node17" class="node"><title>src</title>
<polygon fill="#88ccee" stroke="black" points="362.5,-204 282.5,-204 282.5,-168 362.5,-168 362.5,-204"/>
<text text-anchor="start" x="291.5" y="-189.8" font-family="Arial" font-size="9.00" fill="#000000">structural/bem/</text>
<text text-anchor="start" x="290.5" y="-179.2" font-family="Arial" font-size="11.00" fill="#000000">*&#45;oct&#45;6&#45;src.fif</text>
</g>
<!-- src&#45;&gt;fwd -->
<g id="edge19" class="edge"><title>src&#45;&gt;fwd</title>
<path fill="none" stroke="black" d="M323.77,-167.61C324.57,-156.77 325.6,-142.6 326.5,-130.29"/>
<polygon fill="black" stroke="black" points="330.008,-130.31 327.25,-120.08 323.027,-129.797 330.008,-130.31"/>
</g>
<!-- src&#45;&gt;src -->
<g id="edge20" class="edge"><title>src&#45;&gt;src</title>
<path fill="none" stroke="black" d="M362.62,-193.78C372.83,-193.27 380.5,-190.68 380.5,-186 380.5,-183.08 377.5,-180.97 372.76,-179.67"/>
<polygon fill="black" stroke="black" points="373.015,-176.171 362.62,-178.22 372.024,-183.1 373.015,-176.171"/>
</g>
<!-- tra -->
<g id="node18" class="node"><title>tra</title>
<polygon fill="#332288" stroke="black" points="464,-204 399,-204 399,-168 464,-168 464,-204"/>
<text text-anchor="start" x="407" y="-189.8" font-family="Arial" font-size="9.00" fill="#ffffff">./subj/trans/</text>
<text text-anchor="start" x="409" y="-179.2" font-family="Arial" font-size="11.00" fill="#ffffff">*&#45;trans.fif</text>
</g>
<!-- tra&#45;&gt;fwd -->
<g id="edge21" class="edge"><title>tra&#45;&gt;fwd</title>
<path fill="none" stroke="black" d="M409.66,-167.61C394.67,-155.68 374.6,-139.7 358.17,-126.62"/>
<polygon fill="black" stroke="black" points="359.962,-123.573 349.96,-120.08 355.601,-129.048 359.962,-123.573"/>
<text text-anchor="start" x="386.5" y="-142.2" font-family="Arial" font-weight="bold" font-size="11.00">11. gen_fwd</text>
</g>
<!-- bad -->
<g id="node19" class="node"><title>bad</title>
<polygon fill="#332288" stroke="black" points="265.5,-372 181.5,-372 181.5,-336 265.5,-336 265.5,-372"/>
<text text-anchor="start" x="199" y="-357.8" font-family="Arial" font-size="9.00" fill="#ffffff">./subj/bads/</text>
<text text-anchor="start" x="189.5" y="-347.2" font-family="Arial" font-size="11.00" fill="#ffffff">*_post&#45;sss.txt</text>
</g>
<!-- bad&#45;&gt;pca -->
<g id="edge22" class="edge"><title>bad&#45;&gt;pca</title>
<path fill="none" stroke="black" d="M215.59,-335.78C210.14,-322.92 203.38,-304.75 200.5,-288 196.17,-262.77 202.37,-234.04 208.65,-213.68"/>
<polygon fill="black" stroke="black" points="211.988,-214.733 211.79,-204.14 205.339,-212.544 211.988,-214.733"/>
</g>
<!-- bad&#45;&gt;pro -->
<g id="edge23" class="edge"><title>bad&#45;&gt;pro</title>
<path fill="none" stroke="black" d="M227.81,-335.77C230.26,-326.76 233.63,-315.64 237.5,-306 238.66,-303.11 239.98,-300.15 241.36,-297.22"/>
<polygon fill="black" stroke="black" points="244.552,-298.661 245.88,-288.15 238.287,-295.539 244.552,-298.661"/>
</g>
<!-- bem -->
<g id="node20" class="node"><title>bem</title>
<polygon fill="#88ccee" stroke="black" points="560.5,-204 482.5,-204 482.5,-168 560.5,-168 560.5,-204"/>
<text text-anchor="start" x="490.5" y="-189.8" font-family="Arial" font-size="9.00" fill="#000000">structural/bem/</text>
<text text-anchor="start" x="491.5" y="-179.2" font-family="Arial" font-size="11.00" fill="#000000">*&#45;bem&#45;sol.fif</text>
</g>
<!-- bem&#45;&gt;fwd -->
<g id="edge24" class="edge"><title>bem&#45;&gt;fwd</title>
<path fill="none" stroke="black" d="M500.92,-167.78C488.22,-157.89 471.2,-145.89 454.5,-138 429.53,-126.21 399.85,-117.72 375.57,-112.06"/>
<polygon fill="black" stroke="black" points="376.044,-108.579 365.52,-109.8 374.508,-115.409 376.044,-108.579"/>
</g>
</g>
</svg>
