<?xml version="1.0" encoding="UTF-8" standalone="no"?>
<!DOCTYPE svg PUBLIC "-//W3C//DTD SVG 1.1//EN"
 "http://www.w3.org/Graphics/SVG/1.1/DTD/svg11.dtd">
<!-- Generated by graphviz version 2.38.0 (20140413.2041)
 -->
<!-- Title: mnefun flow diagram Pages: 1 -->
<svg width="601pt" height="772pt"
 viewBox="0.00 0.00 600.50 772.00" xmlns="http://www.w3.org/2000/svg" xmlns:xlink="http://www.w3.org/1999/xlink">
<g id="graph0" class="graph" transform="scale(1 1) rotate(0) translate(4 768)">
<title>mnefun flow diagram</title>
<polygon fill="white" stroke="none" points="-4,4 -4,-768 596.5,-768 596.5,4 -4,4"/>
<!-- sco -->
<g id="node1" class="node"><title>sco</title>
<polygon fill="#c37d8b" stroke="black" points="71,-624 0,-624 0,-588 71,-588 71,-624"/>
<text text-anchor="start" x="33" y="-609.8" font-family="Arial" font-size="9.00" fill="#000000">./</text>
<text text-anchor="start" x="14" y="-599.2" font-family="Arial" font-size="11.00" fill="#000000">score.py</text>
</g>
<!-- lst -->
<g id="node2" class="node"><title>lst</title>
<polygon fill="#adc7f7" stroke="black" points="109,-540 16,-540 16,-504 109,-504 109,-540"/>
<text text-anchor="start" x="40" y="-525.8" font-family="Arial" font-size="9.00" fill="#000000">./subj/lists/</text>
<text text-anchor="start" x="30" y="-515.2" font-family="Arial" font-size="11.00" fill="#000000">ALL_*&#45;eve.lst</text>
</g>
<!-- sco&#45;&gt;lst -->
<g id="edge1" class="edge"><title>sco&#45;&gt;lst</title>
<path fill="none" stroke="black" d="M34.955,-587.61C35.171,-578.56 36.233,-567.44 39.5,-558 40.57,-554.91 41.974,-551.82 43.563,-548.83"/>
<polygon fill="black" stroke="black" points="46.5639,-550.631 48.729,-540.26 40.5688,-547.017 46.5639,-550.631"/>
<text text-anchor="start" x="39.5" y="-562.2" font-family="Arial" font-weight="bold" font-size="11.00">2. do_score</text>
</g>
<!-- evo -->
<g id="node3" class="node"><title>evo</title>
<polygon fill="#adc7f7" stroke="black" points="165.5,-120 17.5,-120 17.5,-84 165.5,-84 165.5,-120"/>
<text text-anchor="start" x="31.5" y="-105.8" font-family="Arial" font-size="9.00" fill="#000000">./subj/inverse/, ./subj/epochs/</text>
<text text-anchor="start" x="51" y="-95.2" font-family="Arial" font-size="11.00" fill="#000000">*&#45;evo.fif, *&#45;epo.fif</text>
</g>
<!-- lst&#45;&gt;evo -->
<g id="edge2" class="edge"><title>lst&#45;&gt;evo</title>
<path fill="none" stroke="black" d="M62.5,-503.72C62.5,-487.13 62.5,-461.35 62.5,-439 62.5,-439 62.5,-439 62.5,-185 62.5,-165.62 69.791,-145.06 77.061,-129.37"/>
<polygon fill="black" stroke="black" points="80.2536,-130.809 81.52,-120.29 73.9704,-127.723 80.2536,-130.809"/>
</g>
<!-- pbd -->
<g id="node4" class="node"><title>pbd</title>
<polygon fill="#c37d8b" stroke="black" points="277,-624 190,-624 190,-588 277,-588 277,-624"/>
<text text-anchor="start" x="206" y="-609.8" font-family="Arial" font-size="9.00" fill="#000000">./subj/raw_fif/</text>
<text text-anchor="start" x="204" y="-599.2" font-family="Arial" font-size="11.00" fill="#000000">*_prebad.txt</text>
</g>
<!-- mfr -->
<g id="node5" class="node"><title>mfr</title>
<polygon fill="#a8a564" stroke="black" points="298.5,-540 140.5,-540 140.5,-504 298.5,-504 298.5,-540"/>
<text text-anchor="start" x="154.5" y="-525.8" font-family="Arial" font-size="9.00" fill="#000000">user@kasga:/data00/user/subj/</text>
<text text-anchor="start" x="167" y="-515.2" font-family="Arial" font-size="11.00" fill="#000000">*_raw.fif, *_prebad.txt</text>
</g>
<!-- pbd&#45;&gt;mfr -->
<g id="edge3" class="edge"><title>pbd&#45;&gt;mfr</title>
<path fill="none" stroke="black" d="M230.53,-587.61C228.68,-576.77 226.26,-562.6 224.16,-550.29"/>
<polygon fill="black" stroke="black" points="227.55,-549.35 222.42,-540.08 220.65,-550.526 227.55,-549.35"/>
</g>
<!-- mfs -->
<g id="node6" class="node"><title>mfs</title>
<polygon fill="#a8a564" stroke="black" points="298.5,-456 140.5,-456 140.5,-420 298.5,-420 298.5,-456"/>
<text text-anchor="start" x="154.5" y="-441.8" font-family="Arial" font-size="9.00" fill="#000000">user@kasga:/data00/user/subj/</text>
<text text-anchor="start" x="165" y="-431.2" font-family="Arial" font-size="11.00" fill="#000000">*_raw_sss.fif, *_log.txt</text>
</g>
<!-- mfr&#45;&gt;mfs -->
<g id="edge4" class="edge"><title>mfr&#45;&gt;mfs</title>
<path fill="none" stroke="black" d="M219.5,-503.61C219.5,-492.77 219.5,-478.6 219.5,-466.29"/>
<polygon fill="black" stroke="black" points="223,-466.08 219.5,-456.08 216,-466.08 223,-466.08"/>
<text text-anchor="start" x="219.5" y="-478.2" font-family="Arial" font-weight="bold" font-size="11.00">4. do_sss</text>
</g>
<!-- sss -->
<g id="node7" class="node"><title>sss</title>
<polygon fill="#adc7f7" stroke="black" points="404.5,-372 312.5,-372 312.5,-336 404.5,-336 404.5,-372"/>
<text text-anchor="start" x="331" y="-357.8" font-family="Arial" font-size="9.00" fill="#000000">./subj/sss_fif/</text>
<text text-anchor="start" x="326.5" y="-347.2" font-family="Arial" font-size="11.00" fill="#000000">*_raw_sss.fif</text>
</g>
<!-- mfs&#45;&gt;sss -->
<g id="edge5" class="edge"><title>mfs&#45;&gt;sss</title>
<path fill="none" stroke="black" d="M248.64,-419.81C269.58,-407.46 298.01,-390.69 320.7,-377.3"/>
<polygon fill="black" stroke="black" points="322.564,-380.264 329.4,-372.17 319.008,-374.234 322.564,-380.264"/>
<text text-anchor="start" x="297.5" y="-394.2" font-family="Arial" font-weight="bold" font-size="11.00">5. fetch_sss</text>
</g>
<!-- ssl -->
<g id="node8" class="node"><title>ssl</title>
<polygon fill="#adc7f7" stroke="black" points="180,-372 91,-372 91,-336 180,-336 180,-372"/>
<text text-anchor="start" x="105" y="-357.8" font-family="Arial" font-size="9.00" fill="#000000">./subj/sss_log/</text>
<text text-anchor="start" x="115.5" y="-347.2" font-family="Arial" font-size="11.00" fill="#000000">*_log.txt</text>
</g>
<!-- mfs&#45;&gt;ssl -->
<g id="edge6" class="edge"><title>mfs&#45;&gt;ssl</title>
<path fill="none" stroke="black" d="M201.69,-419.61C189.69,-407.9 173.7,-392.29 160.44,-379.35"/>
<polygon fill="black" stroke="black" points="162.598,-376.566 153,-372.08 157.706,-381.572 162.598,-376.566"/>
</g>
<!-- sss&#45;&gt;sss -->
<g id="edge7" class="edge"><title>sss&#45;&gt;sss</title>
<path fill="none" stroke="black" d="M404.52,-361.68C414.91,-360.99 422.5,-358.43 422.5,-354 422.5,-351.23 419.53,-349.19 414.77,-347.88"/>
<polygon fill="black" stroke="black" points="414.933,-344.365 404.52,-346.32 413.88,-351.285 414.933,-344.365"/>
<text text-anchor="start" x="422.5" y="-352.2" font-family="Arial" font-weight="bold" font-size="11.00">6. do_ch_fix</text>
</g>
<!-- pca -->
<g id="node10" class="node"><title>pca</title>
<polygon fill="#adc7f7" stroke="black" points="278.5,-204 174.5,-204 174.5,-168 278.5,-168 278.5,-204"/>
<text text-anchor="start" x="188.5" y="-189.8" font-family="Arial" font-size="9.00" fill="#000000">./subj/sss_pca_fif/</text>
<text text-anchor="start" x="194.5" y="-179.2" font-family="Arial" font-size="11.00" fill="#000000">*_raw_sss.fif</text>
</g>
<!-- sss&#45;&gt;pca -->
<g id="edge8" class="edge"><title>sss&#45;&gt;pca</title>
<path fill="none" stroke="black" d="M359.69,-335.55C360.59,-307.19 357.8,-251.32 325.5,-222 319.24,-216.32 304.51,-210.15 288.27,-204.61"/>
<polygon fill="black" stroke="black" points="289.183,-201.226 278.59,-201.42 286.992,-207.874 289.183,-201.226"/>
</g>
<!-- pro -->
<g id="node11" class="node"><title>pro</title>
<polygon fill="#adc7f7" stroke="black" points="330.5,-288 226.5,-288 226.5,-252 330.5,-252 330.5,-288"/>
<text text-anchor="start" x="240.5" y="-273.8" font-family="Arial" font-size="9.00" fill="#000000">./subj/sss_pca_fif/</text>
<text text-anchor="start" x="259.5" y="-263.2" font-family="Arial" font-size="11.00" fill="#000000">*&#45;proj.fif</text>
</g>
<!-- sss&#45;&gt;pro -->
<g id="edge9" class="edge"><title>sss&#45;&gt;pro</title>
<path fill="none" stroke="black" d="M312.29,-338.54C302.47,-333.48 293.09,-326.78 286.5,-318 282.23,-312.31 279.93,-305.13 278.75,-298.12"/>
<polygon fill="black" stroke="black" points="282.229,-297.732 277.73,-288.14 275.265,-298.444 282.229,-297.732"/>
<text text-anchor="start" x="286.5" y="-310.2" font-family="Arial" font-weight="bold" font-size="11.00">7. gen_ssp</text>
</g>
<!-- inv -->
<g id="node9" class="node"><title>inv</title>
<polygon fill="#adc7f7" stroke="black" points="346.5,-36 260.5,-36 260.5,-0 346.5,-0 346.5,-36"/>
<text text-anchor="start" x="274.5" y="-21.8" font-family="Arial" font-size="9.00" fill="#000000">./subj/inverse/</text>
<text text-anchor="start" x="286.5" y="-11.2" font-family="Arial" font-size="11.00" fill="#000000">*&#45;inv.fif</text>
</g>
<!-- pca&#45;&gt;evo -->
<g id="edge10" class="edge"><title>pca&#45;&gt;evo</title>
<path fill="none" stroke="black" d="M178.15,-167.83C166.42,-162.81 154.18,-156.8 143.5,-150 133.44,-143.59 123.46,-135.21 114.98,-127.29"/>
<polygon fill="black" stroke="black" points="117.281,-124.646 107.65,-120.23 112.424,-129.688 117.281,-124.646"/>
<text text-anchor="start" x="143.5" y="-142.2" font-family="Arial" font-weight="bold" font-size="11.00">9. write_epochs</text>
</g>
<!-- fwd -->
<g id="node12" class="node"><title>fwd</title>
<polygon fill="#adc7f7" stroke="black" points="385.5,-120 299.5,-120 299.5,-84 385.5,-84 385.5,-120"/>
<text text-anchor="start" x="313.5" y="-105.8" font-family="Arial" font-size="9.00" fill="#000000">./subj/forward/</text>
<text text-anchor="start" x="324" y="-95.2" font-family="Arial" font-size="11.00" fill="#000000">*&#45;fwd.fif</text>
</g>
<!-- pca&#45;&gt;fwd -->
<g id="edge11" class="edge"><title>pca&#45;&gt;fwd</title>
<path fill="none" stroke="black" d="M272.14,-167.88C282.62,-162.92 293.35,-156.93 302.5,-150 310.53,-143.92 318.05,-135.96 324.36,-128.33"/>
<polygon fill="black" stroke="black" points="327.256,-130.31 330.7,-120.29 321.76,-125.975 327.256,-130.31"/>
</g>
<!-- cov -->
<g id="node13" class="node"><title>cov</title>
<polygon fill="#adc7f7" stroke="black" points="272,-120 203,-120 203,-84 272,-84 272,-120"/>
<text text-anchor="start" x="217" y="-105.8" font-family="Arial" font-size="9.00" fill="#000000">./subj/cov/</text>
<text text-anchor="start" x="219" y="-95.2" font-family="Arial" font-size="11.00" fill="#000000">*&#45;cov.fif</text>
</g>
<!-- pca&#45;&gt;cov -->
<g id="edge12" class="edge"><title>pca&#45;&gt;cov</title>
<path fill="none" stroke="black" d="M228.66,-167.58C229.78,-158.72 231.18,-147.78 232.5,-138 232.85,-135.45 233.21,-132.79 233.58,-130.13"/>
<polygon fill="black" stroke="black" points="237.066,-130.473 235.01,-120.08 230.136,-129.487 237.066,-130.473"/>
<text text-anchor="start" x="232.5" y="-142.2" font-family="Arial" font-weight="bold" font-size="11.00">10. gen_covs</text>
</g>
<!-- pro&#45;&gt;pca -->
<g id="edge13" class="edge"><title>pro&#45;&gt;pca</title>
<path fill="none" stroke="black" d="M267.47,-251.61C260.32,-240.34 250.88,-225.45 242.87,-212.81"/>
<polygon fill="black" stroke="black" points="245.643,-210.648 237.33,-204.08 239.733,-214.399 245.643,-210.648"/>
<text text-anchor="start" x="256.5" y="-226.2" font-family="Arial" font-weight="bold" font-size="11.00">8. apply_ssp</text>
</g>
<!-- fwd&#45;&gt;inv -->
<g id="edge14" class="edge"><title>fwd&#45;&gt;inv</title>
<path fill="none" stroke="black" d="M334.23,-83.61C328.92,-72.446 321.92,-57.739 315.95,-45.177"/>
<polygon fill="black" stroke="black" points="319.083,-43.6145 311.63,-36.084 312.76,-46.6184 319.083,-43.6145"/>
<text text-anchor="start" x="325.5" y="-58.2" font-family="Arial" font-weight="bold" font-size="11.00">12. gen_inv</text>
</g>
<!-- cov&#45;&gt;inv -->
<g id="edge15" class="edge"><title>cov&#45;&gt;inv</title>
<path fill="none" stroke="black" d="M251.5,-83.61C260.75,-72.118 273.02,-56.871 283.32,-44.075"/>
<polygon fill="black" stroke="black" points="286.208,-46.0692 289.75,-36.084 280.754,-41.6808 286.208,-46.0692"/>
</g>
<!-- raw -->
<g id="node14" class="node"><title>raw</title>
<polygon fill="#adc7f7" stroke="black" points="172,-624 89,-624 89,-588 172,-588 172,-624"/>
<text text-anchor="start" x="103" y="-609.8" font-family="Arial" font-size="9.00" fill="#000000">./subj/raw_fif/</text>
<text text-anchor="start" x="110.5" y="-599.2" font-family="Arial" font-size="11.00" fill="#000000">*_raw.fif</text>
</g>
<!-- raw&#45;&gt;lst -->
<g id="edge16" class="edge"><title>raw&#45;&gt;lst</title>
<path fill="none" stroke="black" d="M121.4,-587.68C116.17,-578.44 109.12,-567.12 101.5,-558 98.383,-554.27 94.867,-550.57 91.256,-547.05"/>
<polygon fill="black" stroke="black" points="93.518,-544.374 83.806,-540.14 88.7577,-549.507 93.518,-544.374"/>
</g>
<!-- raw&#45;&gt;mfr -->
<g id="edge17" class="edge"><title>raw&#45;&gt;mfr</title>
<path fill="none" stroke="black" d="M138,-587.89C142.83,-578.28 149.83,-566.53 158.5,-558 163.07,-553.5 168.33,-549.38 173.81,-545.67"/>
<polygon fill="black" stroke="black" points="175.933,-548.469 182.52,-540.17 172.196,-542.55 175.933,-548.469"/>
<text text-anchor="start" x="158.5" y="-562.2" font-family="Arial" font-weight="bold" font-size="11.00">3. push_raw</text>
</g>
<!-- acq -->
<g id="node15" class="node"><title>acq</title>
<polygon fill="#61c5ad" stroke="black" points="172,-736 89,-736 89,-700 172,-700 172,-736"/>
<text text-anchor="start" x="103" y="-721.8" font-family="Arial" font-size="9.00" fill="#000000">user@minea</text>
<text text-anchor="start" x="110.5" y="-711.2" font-family="Arial" font-size="11.00" fill="#000000">*_raw.fif</text>
</g>
<!-- acq&#45;&gt;raw -->
<g id="edge18" class="edge"><title>acq&#45;&gt;raw</title>
<path fill="none" stroke="black" d="M130.5,-699.81C130.5,-682.21 130.5,-654.61 130.5,-634.07"/>
<polygon fill="black" stroke="black" points="134,-634.07 130.5,-624.07 127,-634.07 134,-634.07"/>
<text text-anchor="start" x="130.5" y="-646.2" font-family="Arial" font-weight="bold" font-size="11.00">1. fetch_raw</text>
</g>
<!-- legend -->
<g id="node16" class="node"><title>legend</title>
<polygon fill="#61c5ad" stroke="none" points="194.5,-742 194.5,-760 212.5,-760 212.5,-742 194.5,-742"/>
<text text-anchor="start" x="198.5" y="-748.8" font-family="Arial" font-size="9.00"> &#160;&#160;&#160;</text>
<text text-anchor="start" x="220.5" y="-748.8" font-family="Arial" font-size="9.00">Remote: acquisiton machine</text>
<polygon fill="#c37d8b" stroke="none" points="194.5,-720 194.5,-738 212.5,-738 212.5,-720 194.5,-720"/>
<text text-anchor="start" x="198.5" y="-726.8" font-family="Arial" font-size="9.00"> &#160;&#160;&#160;</text>
<text text-anchor="start" x="220.5" y="-726.8" font-family="Arial" font-size="9.00">Local: user&#45;created files</text>
<polygon fill="#adc7f7" stroke="none" points="194.5,-698 194.5,-716 212.5,-716 212.5,-698 194.5,-698"/>
<text text-anchor="start" x="198.5" y="-704.8" font-family="Arial" font-size="9.00"> &#160;&#160;&#160;</text>
<text text-anchor="start" x="220.5" y="-704.8" font-family="Arial" font-size="9.00">Local: pipeline&#45;created files</text>
<polygon fill="#a8a564" stroke="none" points="194.5,-676 194.5,-694 212.5,-694 212.5,-676 194.5,-676"/>
<text text-anchor="start" x="198.5" y="-682.8" font-family="Arial" font-size="9.00"> &#160;&#160;&#160;</text>
<text text-anchor="start" x="220.5" y="-682.8" font-family="Arial" font-size="9.00">Remote: SSS machine</text>
</g>
<!-- src -->
<g id="node17" class="node"><title>src</title>
<polygon fill="#adc7f7" stroke="black" points="388.5,-204 296.5,-204 296.5,-168 388.5,-168 388.5,-204"/>
<text text-anchor="start" x="311.5" y="-189.8" font-family="Arial" font-size="9.00" fill="#000000">structural/bem/</text>
<text text-anchor="start" x="310.5" y="-179.2" font-family="Arial" font-size="11.00" fill="#000000">*&#45;oct&#45;6&#45;src.fif</text>
</g>
<!-- src&#45;&gt;fwd -->
<g id="edge19" class="edge"><title>src&#45;&gt;fwd</title>
<path fill="none" stroke="black" d="M342.5,-167.61C342.5,-156.77 342.5,-142.6 342.5,-130.29"/>
<polygon fill="black" stroke="black" points="346,-130.08 342.5,-120.08 339,-130.08 346,-130.08"/>
</g>
<!-- tra -->
<g id="node18" class="node"><title>tra</title>
<polygon fill="#c37d8b" stroke="black" points="484,-204 407,-204 407,-168 484,-168 484,-204"/>
<text text-anchor="start" x="421" y="-189.8" font-family="Arial" font-size="9.00" fill="#000000">./subj/trans/</text>
<text text-anchor="start" x="423" y="-179.2" font-family="Arial" font-size="11.00" fill="#000000">*&#45;trans.fif</text>
</g>
<!-- tra&#45;&gt;fwd -->
<g id="edge20" class="edge"><title>tra&#45;&gt;fwd</title>
<path fill="none" stroke="black" d="M423.66,-167.61C408.67,-155.68 388.6,-139.7 372.17,-126.62"/>
<polygon fill="black" stroke="black" points="373.962,-123.573 363.96,-120.08 369.601,-129.048 373.962,-123.573"/>
<text text-anchor="start" x="399.5" y="-142.2" font-family="Arial" font-weight="bold" font-size="11.00">11. gen_fwd</text>
</g>
<!-- bad -->
<g id="node19" class="node"><title>bad</title>
<polygon fill="#c37d8b" stroke="black" points="294.5,-372 198.5,-372 198.5,-336 294.5,-336 294.5,-372"/>
<text text-anchor="start" x="222" y="-357.8" font-family="Arial" font-size="9.00" fill="#000000">./subj/bads/</text>
<text text-anchor="start" x="212.5" y="-347.2" font-family="Arial" font-size="11.00" fill="#000000">*_post&#45;sss.txt</text>
</g>
<!-- bad&#45;&gt;pca -->
<g id="edge21" class="edge"><title>bad&#45;&gt;pca</title>
<path fill="none" stroke="black" d="M236.4,-335.75C229.56,-323.03 221.13,-305.04 217.5,-288 212.25,-263.37 215.68,-234.72 219.73,-214.24"/>
<polygon fill="black" stroke="black" points="223.178,-214.853 221.86,-204.34 216.335,-213.38 223.178,-214.853"/>
</g>
<!-- bad&#45;&gt;pro -->
<g id="edge22" class="edge"><title>bad&#45;&gt;pro</title>
<path fill="none" stroke="black" d="M251.34,-335.82C254.03,-326.83 257.62,-315.7 261.5,-306 262.64,-303.14 263.92,-300.2 265.24,-297.28"/>
<polygon fill="black" stroke="black" points="268.409,-298.765 269.53,-288.23 262.084,-295.767 268.409,-298.765"/>
</g>
<!-- bem -->
<g id="node20" class="node"><title>bem</title>
<polygon fill="#adc7f7" stroke="black" points="592.5,-204 502.5,-204 502.5,-168 592.5,-168 592.5,-204"/>
<text text-anchor="start" x="516.5" y="-189.8" font-family="Arial" font-size="9.00" fill="#000000">structural/bem/</text>
<text text-anchor="start" x="517.5" y="-179.2" font-family="Arial" font-size="11.00" fill="#000000">*&#45;bem&#45;sol.fif</text>
</g>
<!-- bem&#45;&gt;fwd -->
<g id="edge23" class="edge"><title>bem&#45;&gt;fwd</title>
<path fill="none" stroke="black" d="M522.09,-167.78C506.79,-158 486.62,-146.13 467.5,-138 444.56,-128.24 418.1,-120.38 395.45,-114.6"/>
<polygon fill="black" stroke="black" points="396.219,-111.185 385.67,-112.17 394.531,-117.978 396.219,-111.185"/>
</g>
</g>
</svg>
